<svg width="28" height="30" viewBox="0 0 28 30" fill="none" xmlns="http://www.w3.org/2000/svg">
<path d="M6.06831 12.3548H6.56831V11.8548V8.82545C6.56831 4.49196 10.0154 0.994629 14.2484 0.994629C18.4815 0.994629 21.9285 4.49196 21.9285 8.82545V11.8548V12.3548H22.4285H23.1722C25.3517 12.3548 27.134 14.1568 27.134 16.3989V24.7298C27.134 26.9719 25.3517 28.7739 23.1722 28.7739H5.32467C3.14515 28.7739 1.36279 26.9719 1.36279 24.7298V16.3989C1.36279 14.1568 3.14515 12.3548 5.32467 12.3548H6.06831ZM9.28654 11.8548V12.3548H9.78654H18.7103H19.2103V11.8548V8.82545C19.2103 6.04833 16.9974 3.78137 14.2484 3.78137C11.4995 3.78137 9.28654 6.04833 9.28654 8.82545V11.8548ZM7.5556 22.9577C9.07243 22.9577 10.2865 21.708 10.2865 20.1857C10.2865 18.6633 9.07243 17.4136 7.5556 17.4136C6.03878 17.4136 4.82467 18.6633 4.82467 20.1857C4.82467 21.708 6.03878 22.9577 7.5556 22.9577ZM14.2484 22.9577C15.7652 22.9577 16.9794 21.708 16.9794 20.1857C16.9794 18.6633 15.7652 17.4136 14.2484 17.4136C12.7316 17.4136 11.5175 18.6633 11.5175 20.1857C11.5175 21.708 12.7316 22.9577 14.2484 22.9577ZM20.9412 22.9577C22.458 22.9577 23.6722 21.708 23.6722 20.1857C23.6722 18.6633 22.458 17.4136 20.9412 17.4136C19.4244 17.4136 18.2103 18.6634 18.2103 20.1857C18.2103 21.708 19.4244 22.9577 20.9412 22.9577Z" fill="#4E4E4E" stroke="#F4CF4B"/>
</svg>
