<svg width="204" height="66" viewBox="0 0 204 66" fill="none" xmlns="http://www.w3.org/2000/svg">
<g filter="url(#filter0_d_83_395)">
<rect x="6.10645" y="1.5" width="26" height="26" fill="#0E1621" stroke="#FEC200"/>
<rect x="9.10645" y="4.5" width="189" height="52" fill="#0E1621" stroke="#FEC200"/>
<path d="M41.245 13L8.60645 56H197.606V13H41.245Z" fill="#FEC200"/>
<circle cx="194.606" cy="9" r="1" fill="#FEC200"/>
<circle cx="178.606" cy="9" r="1" fill="#FEC200"/>
<circle cx="162.606" cy="9" r="1" fill="#FEC200"/>
<circle cx="146.606" cy="9" r="1" fill="#FEC200"/>
<circle cx="130.606" cy="9" r="1" fill="#FEC200"/>
<circle cx="114.606" cy="9" r="1" fill="#FEC200"/>
<circle cx="98.6064" cy="9" r="1" fill="#FEC200"/>
<circle cx="82.6064" cy="9" r="1" fill="#FEC200"/>
<circle cx="66.6064" cy="9" r="1" fill="#FEC200"/>
<circle cx="190.606" cy="9" r="1" fill="#FEC200"/>
<circle cx="174.606" cy="9" r="1" fill="#FEC200"/>
<circle cx="158.606" cy="9" r="1" fill="#FEC200"/>
<circle cx="142.606" cy="9" r="1" fill="#FEC200"/>
<circle cx="126.606" cy="9" r="1" fill="#FEC200"/>
<circle cx="110.606" cy="9" r="1" fill="#FEC200"/>
<circle cx="94.6064" cy="9" r="1" fill="#FEC200"/>
<circle cx="78.6064" cy="9" r="1" fill="#FEC200"/>
<circle cx="62.6064" cy="9" r="1" fill="#FEC200"/>
<circle cx="186.606" cy="9" r="1" fill="#FEC200"/>
<circle cx="170.606" cy="9" r="1" fill="#FEC200"/>
<circle cx="154.606" cy="9" r="1" fill="#FEC200"/>
<circle cx="138.606" cy="9" r="1" fill="#FEC200"/>
<circle cx="122.606" cy="9" r="1" fill="#FEC200"/>
<circle cx="106.606" cy="9" r="1" fill="#FEC200"/>
<circle cx="90.6064" cy="9" r="1" fill="#FEC200"/>
<circle cx="74.6064" cy="9" r="1" fill="#FEC200"/>
<circle cx="58.6064" cy="9" r="1" fill="#FEC200"/>
<circle cx="50.6064" cy="9" r="1" fill="#FEC200"/>
<circle cx="182.606" cy="9" r="1" fill="#FEC200"/>
<circle cx="166.606" cy="9" r="1" fill="#FEC200"/>
<circle cx="150.606" cy="9" r="1" fill="#FEC200"/>
<circle cx="134.606" cy="9" r="1" fill="#FEC200"/>
<circle cx="118.606" cy="9" r="1" fill="#FEC200"/>
<circle cx="102.606" cy="9" r="1" fill="#FEC200"/>
<circle cx="86.6064" cy="9" r="1" fill="#FEC200"/>
<circle cx="70.6064" cy="9" r="1" fill="#FEC200"/>
<circle cx="54.6064" cy="9" r="1" fill="#FEC200"/>
<circle cx="46.6064" cy="9" r="1" fill="#FEC200"/>
<path d="M77.6064 45V25L64.6064 35L77.6064 45Z" fill="#1E2F47"/>
<path d="M104.8 31.324C104.522 31.324 104.281 31.229 104.078 31.039C103.888 30.8363 103.793 30.5893 103.793 30.298C103.793 30.0067 103.888 29.766 104.078 29.576C104.281 29.3733 104.522 29.272 104.8 29.272C105.092 29.272 105.332 29.3733 105.522 29.576C105.725 29.7787 105.826 30.0193 105.826 30.298C105.826 30.5767 105.725 30.8173 105.522 31.02C105.332 31.2227 105.092 31.324 104.8 31.324ZM111.716 37.575V39C110.766 39 110.076 38.8353 109.645 38.506C109.316 41.2673 107.638 42.648 104.61 42.648C103.065 42.648 101.855 42.2553 100.981 41.47C100.12 40.6847 99.6892 39.4623 99.6892 37.803V34.649H101.437L101.418 37.841C101.418 40.0703 102.52 41.185 104.724 41.185C105.814 41.185 106.624 40.9 107.156 40.33C107.701 39.76 107.973 38.8733 107.973 37.67V32.407H109.702V35.884C109.702 36.5427 109.854 36.9923 110.158 37.233C110.475 37.461 110.994 37.575 111.716 37.575ZM120.377 37.575H122.011V39H111.713C111.397 39 111.238 38.7657 111.238 38.297C111.238 37.8157 111.397 37.575 111.713 37.575H118.648V34.839C118.648 33.091 117.648 32.217 115.646 32.217H112.72V30.792H116.425C117.16 30.792 117.793 30.9123 118.325 31.153C118.857 31.3937 119.263 31.7167 119.541 32.122C119.833 32.5273 120.042 32.9517 120.168 33.395C120.308 33.8257 120.377 34.288 120.377 34.782V37.556V37.575ZM125.26 29.025C124.982 29.025 124.741 28.93 124.538 28.74C124.348 28.5373 124.253 28.2903 124.253 27.999C124.253 27.7077 124.348 27.467 124.538 27.277C124.741 27.0743 124.982 26.973 125.26 26.973C125.552 26.973 125.792 27.0743 125.982 27.277C126.185 27.467 126.286 27.7077 126.286 27.999C126.286 28.2903 126.185 28.5373 125.982 28.74C125.792 28.93 125.552 29.025 125.26 29.025ZM124.405 37.575V30.792H126.134V37.556C126.134 38.5187 125.634 39 124.633 39H122.011C121.695 39 121.536 38.7657 121.536 38.297C121.536 37.8157 121.695 37.575 122.011 37.575H124.405ZM138.811 31.324C138.532 31.324 138.292 31.229 138.089 31.039C137.899 30.8363 137.804 30.5893 137.804 30.298C137.804 30.0067 137.899 29.766 138.089 29.576C138.292 29.3733 138.532 29.272 138.811 29.272C139.102 29.272 139.343 29.3733 139.533 29.576C139.736 29.7787 139.837 30.0193 139.837 30.298C139.837 30.5767 139.736 30.8173 139.533 31.02C139.343 31.2227 139.102 31.324 138.811 31.324ZM145.727 37.575V39C144.777 39 144.087 38.8353 143.656 38.506C143.327 41.2673 141.648 42.648 138.621 42.648C137.076 42.648 135.866 42.2553 134.992 41.47C134.131 40.6847 133.7 39.4623 133.7 37.803V34.649H135.448L135.429 37.841C135.429 40.0703 136.531 41.185 138.735 41.185C139.824 41.185 140.635 40.9 141.167 40.33C141.712 39.76 141.984 38.8733 141.984 37.67V32.407H143.713V35.884C143.713 36.5427 143.865 36.9923 144.169 37.233C144.486 37.461 145.005 37.575 145.727 37.575ZM150.873 30.64C152.722 31.4633 154.065 32.331 154.901 33.243C155.737 34.1423 156.155 35.0353 156.155 35.922C156.155 36.644 155.94 37.271 155.509 37.803C155.091 38.335 154.559 38.7087 153.913 38.924C153.28 39.1393 152.558 39.1963 151.747 39.095C150.949 38.9937 150.189 38.7213 149.467 38.278L150.189 37.081C150.835 37.4863 151.487 37.708 152.146 37.746C152.817 37.784 153.362 37.651 153.78 37.347C154.211 37.0303 154.426 36.5997 154.426 36.055C154.426 34.6743 153.311 33.4267 151.082 32.312L148.745 37.67C148.365 38.5567 147.675 39 146.674 39H145.724C145.407 39 145.249 38.7657 145.249 38.297C145.249 37.8157 145.407 37.575 145.724 37.575H146.997L148.992 32.977C149.385 32.0903 149.967 31.343 150.74 30.735L150.873 30.64Z" fill="#1E2F47"/>
<path d="M13.9694 12.5L33.6065 12.5L13.9694 37.5L13.9694 12.5Z" fill="#B6BABD"/>
</g>
<defs>
<filter id="filter0_d_83_395" x="0.606445" y="0" width="203" height="66" filterUnits="userSpaceOnUse" color-interpolation-filters="sRGB">
<feFlood flood-opacity="0" result="BackgroundImageFix"/>
<feColorMatrix in="SourceAlpha" type="matrix" values="0 0 0 0 0 0 0 0 0 0 0 0 0 0 0 0 0 0 127 0" result="hardAlpha"/>
<feOffset dy="4"/>
<feGaussianBlur stdDeviation="2.5"/>
<feComposite in2="hardAlpha" operator="out"/>
<feColorMatrix type="matrix" values="0 0 0 0 0 0 0 0 0 0 0 0 0 0 0 0 0 0 0.25 0"/>
<feBlend mode="normal" in2="BackgroundImageFix" result="effect1_dropShadow_83_395"/>
<feBlend mode="normal" in="SourceGraphic" in2="effect1_dropShadow_83_395" result="shape"/>
</filter>
</defs>
</svg>
