<svg width="263" height="70" viewBox="0 0 263 70" fill="none" xmlns="http://www.w3.org/2000/svg">
<g filter="url(#filter0_d_83_442)">
<rect x="4.60695" y="0.5" width="34.1562" height="34.1562" fill="#1E2F47" stroke="#FEC200"/>
<rect x="222.607" y="26.5" width="34.1562" height="34.1562" fill="#1E2F47" stroke="#FEC200"/>
<rect x="7.60695" y="3.5" width="246" height="54" fill="#1E2F47" stroke="#FEC200"/>
<path d="M49.5889 15L7.10695 57H216.107L253.107 15H49.5889Z" fill="#FEC200"/>
<path d="M14.0763 14.9999L39.6069 14.9999L14.0763 40.2233L14.0763 14.9999Z" fill="#D1D2D6"/>
<path d="M250.107 53.0001L227.107 53.0001L250.107 27L250.107 53.0001Z" fill="#D1D2D6"/>
<circle cx="229.117" cy="10.1146" r="1.30208" fill="#FEC200"/>
<circle cx="208.284" cy="10.1146" r="1.30208" fill="#FEC200"/>
<circle cx="187.451" cy="10.1146" r="1.30208" fill="#FEC200"/>
<circle cx="166.617" cy="10.1146" r="1.30208" fill="#FEC200"/>
<circle cx="145.784" cy="10.1146" r="1.30208" fill="#FEC200"/>
<circle cx="124.951" cy="10.1146" r="1.30208" fill="#FEC200"/>
<circle cx="104.117" cy="10.1146" r="1.30208" fill="#FEC200"/>
<circle cx="83.284" cy="10.1146" r="1.30208" fill="#FEC200"/>
<circle cx="62.4507" cy="10.1146" r="1.30208" fill="#FEC200"/>
<circle cx="223.909" cy="10.1146" r="1.30208" fill="#FEC200"/>
<circle cx="203.076" cy="10.1146" r="1.30208" fill="#FEC200"/>
<circle cx="182.242" cy="10.1146" r="1.30208" fill="#FEC200"/>
<circle cx="161.409" cy="10.1146" r="1.30208" fill="#FEC200"/>
<circle cx="140.576" cy="10.1146" r="1.30208" fill="#FEC200"/>
<circle cx="119.742" cy="10.1146" r="1.30208" fill="#FEC200"/>
<circle cx="98.909" cy="10.1146" r="1.30208" fill="#FEC200"/>
<circle cx="78.0757" cy="10.1146" r="1.30208" fill="#FEC200"/>
<circle cx="57.2424" cy="10.1146" r="1.30208" fill="#FEC200"/>
<circle cx="218.701" cy="10.1146" r="1.30208" fill="#FEC200"/>
<circle cx="197.867" cy="10.1146" r="1.30208" fill="#FEC200"/>
<circle cx="177.034" cy="10.1146" r="1.30208" fill="#FEC200"/>
<circle cx="156.201" cy="10.1146" r="1.30208" fill="#FEC200"/>
<circle cx="135.367" cy="10.1146" r="1.30208" fill="#FEC200"/>
<circle cx="114.534" cy="10.1146" r="1.30208" fill="#FEC200"/>
<circle cx="93.7007" cy="10.1146" r="1.30208" fill="#FEC200"/>
<circle cx="72.8674" cy="10.1146" r="1.30208" fill="#FEC200"/>
<circle cx="52.034" cy="10.1146" r="1.30208" fill="#FEC200"/>
<circle cx="41.6174" cy="10.1146" r="1.30208" fill="#FEC200"/>
<circle cx="213.492" cy="10.1146" r="1.30208" fill="#FEC200"/>
<circle cx="192.659" cy="10.1146" r="1.30208" fill="#FEC200"/>
<circle cx="171.826" cy="10.1146" r="1.30208" fill="#FEC200"/>
<circle cx="150.992" cy="10.1146" r="1.30208" fill="#FEC200"/>
<circle cx="130.159" cy="10.1146" r="1.30208" fill="#FEC200"/>
<circle cx="109.326" cy="10.1146" r="1.30208" fill="#FEC200"/>
<circle cx="88.4924" cy="10.1146" r="1.30208" fill="#FEC200"/>
<circle cx="67.659" cy="10.1146" r="1.30208" fill="#FEC200"/>
<circle cx="46.8257" cy="10.1146" r="1.30208" fill="#FEC200"/>
<circle cx="36.409" cy="10.1146" r="1.30208" fill="#FEC200"/>
<path d="M64.1755 30.16C63.8235 30.16 63.5195 30.04 63.2635 29.8C63.0235 29.544 62.9035 29.232 62.9035 28.864C62.9035 28.496 63.0235 28.192 63.2635 27.952C63.5195 27.696 63.8235 27.568 64.1755 27.568C64.5435 27.568 64.8475 27.696 65.0875 27.952C65.3435 28.192 65.4715 28.496 65.4715 28.864C65.4715 29.232 65.3435 29.544 65.0875 29.8C64.8475 30.04 64.5435 30.16 64.1755 30.16ZM68.4475 29.8C68.2075 30.04 67.9115 30.16 67.5595 30.16C67.2075 30.16 66.9035 30.04 66.6475 29.8C66.3915 29.544 66.2635 29.232 66.2635 28.864C66.2635 28.496 66.3915 28.192 66.6475 27.952C66.9035 27.696 67.2075 27.568 67.5595 27.568C67.9115 27.568 68.2075 27.696 68.4475 27.952C68.7035 28.192 68.8315 28.496 68.8315 28.864C68.8315 29.232 68.7035 29.544 68.4475 29.8ZM72.9355 41.2V43H70.5595C70.1435 44.536 69.2555 45.656 67.8955 46.36C66.5355 47.064 64.5115 47.416 61.8235 47.416C59.1515 47.416 57.1035 46.92 55.6795 45.928C54.2555 44.936 53.5435 43.464 53.5435 41.512V37.816H55.7275V40.96C55.7275 42.544 56.2395 43.704 57.2635 44.44C58.3035 45.192 59.8955 45.568 62.0395 45.568C63.9915 45.568 65.4795 45.352 66.5035 44.92C67.5275 44.504 68.1835 43.856 68.4715 42.976H66.1915C65.0875 42.976 64.1435 42.832 63.3595 42.544C62.5755 42.256 61.9675 41.864 61.5355 41.368C61.1195 40.856 60.8155 40.32 60.6235 39.76C60.4475 39.184 60.3595 38.56 60.3595 37.888C60.3595 36.368 60.8555 35.072 61.8475 34C62.8395 32.928 64.1835 32.392 65.8795 32.392C67.2715 32.392 68.4475 32.848 69.4075 33.76C70.3835 34.672 70.8715 36.096 70.8715 38.032V40.096C70.8715 40.352 70.8555 40.72 70.8235 41.2H72.9355ZM62.5435 37.864C62.5435 40.088 63.9035 41.2 66.6235 41.2H68.6875V38.272C68.6875 37.008 68.4395 36.016 67.9435 35.296C67.4475 34.56 66.7115 34.192 65.7355 34.192C64.7275 34.192 63.9435 34.544 63.3835 35.248C62.8235 35.952 62.5435 36.824 62.5435 37.864ZM78.2793 41.2H80.7513V43H76.5033H76.4553H76.3833H72.9273C72.5273 43 72.3273 42.704 72.3273 42.112C72.3273 41.504 72.5273 41.2 72.9273 41.2H76.0953V32.632H78.2793V41.176V41.2ZM75.4473 44.896C75.8153 44.896 76.1193 45.016 76.3593 45.256C76.6153 45.512 76.7433 45.824 76.7433 46.192C76.7433 46.56 76.6153 46.864 76.3593 47.104C76.1193 47.36 75.8153 47.488 75.4473 47.488C75.0953 47.488 74.7913 47.36 74.5353 47.104C74.2953 46.864 74.1753 46.56 74.1753 46.192C74.1753 45.824 74.2953 45.512 74.5353 45.256C74.7913 45.016 75.0953 44.896 75.4473 44.896ZM77.9193 45.256C78.1753 45.016 78.4793 44.896 78.8313 44.896C79.1833 44.896 79.4793 45.016 79.7193 45.256C79.9753 45.512 80.1033 45.824 80.1033 46.192C80.1033 46.56 79.9753 46.864 79.7193 47.104C79.4793 47.36 79.1833 47.488 78.8313 47.488C78.4793 47.488 78.1753 47.36 77.9193 47.104C77.6633 46.864 77.5353 46.56 77.5353 46.192C77.5353 45.824 77.6633 45.512 77.9193 45.256ZM85.9634 41.2H88.3874V43H84.1874H84.1394H84.0674H80.7554C80.3554 43 80.1554 42.704 80.1554 42.112C80.1554 41.504 80.3554 41.2 80.7554 41.2H83.7794V32.632H85.9634V41.176V41.2ZM83.6834 45.256C83.9394 45.016 84.2434 44.896 84.5954 44.896C84.9474 44.896 85.2514 45.016 85.5074 45.256C85.7634 45.512 85.8914 45.824 85.8914 46.192C85.8914 46.56 85.7634 46.864 85.5074 47.104C85.2514 47.36 84.9474 47.488 84.5954 47.488C84.2434 47.488 83.9394 47.36 83.6834 47.104C83.4434 46.864 83.3234 46.56 83.3234 46.192C83.3234 45.824 83.4434 45.512 83.6834 45.256ZM104.452 41.2H106.54V43H88.396C87.996 43 87.796 42.704 87.796 42.112C87.796 41.504 87.996 41.2 88.396 41.2H90.748V26.2H92.932V32.632H99.412C100.356 32.632 101.164 32.784 101.836 33.088C102.524 33.392 103.052 33.808 103.42 34.336C103.788 34.848 104.052 35.392 104.212 35.968C104.372 36.528 104.452 37.128 104.452 37.768V41.2ZM102.268 41.2V37.792C102.268 35.552 101.012 34.432 98.5 34.432H92.932V41.2H102.268ZM109.105 30.4C108.753 30.4 108.449 30.28 108.193 30.04C107.953 29.784 107.833 29.472 107.833 29.104C107.833 28.736 107.953 28.432 108.193 28.192C108.449 27.936 108.753 27.808 109.105 27.808C109.473 27.808 109.777 27.936 110.017 28.192C110.273 28.432 110.401 28.736 110.401 29.104C110.401 29.472 110.273 29.784 110.017 30.04C109.777 30.28 109.473 30.4 109.105 30.4ZM113.377 30.04C113.137 30.28 112.841 30.4 112.489 30.4C112.137 30.4 111.833 30.28 111.577 30.04C111.321 29.784 111.193 29.472 111.193 29.104C111.193 28.736 111.321 28.432 111.577 28.192C111.833 27.936 112.137 27.808 112.489 27.808C112.841 27.808 113.137 27.936 113.377 28.192C113.633 28.432 113.761 28.736 113.761 29.104C113.761 29.472 113.633 29.784 113.377 30.04ZM111.889 41.2H114.361V43H110.113H110.065H109.993H106.537C106.137 43 105.937 42.704 105.937 42.112C105.937 41.504 106.137 41.2 106.537 41.2H109.705V32.632H111.889V41.176V41.2ZM117.389 25.84H119.573V41.176C119.573 42.392 118.941 43 117.677 43H114.365C113.965 43 113.765 42.704 113.765 42.112C113.765 41.504 113.965 41.2 114.365 41.2H117.389V25.84ZM122.841 43V25.84H125.025V43H122.841ZM143.303 33.256C143.047 33.496 142.743 33.616 142.391 33.616C142.039 33.616 141.735 33.496 141.479 33.256C141.239 33 141.119 32.688 141.119 32.32C141.119 31.952 141.239 31.648 141.479 31.408C141.735 31.152 142.039 31.024 142.391 31.024C142.743 31.024 143.047 31.152 143.303 31.408C143.559 31.648 143.687 31.952 143.687 32.32C143.687 32.688 143.559 33 143.303 33.256ZM145.775 33.616C145.407 33.616 145.095 33.496 144.839 33.256C144.599 33 144.479 32.688 144.479 32.32C144.479 31.952 144.599 31.648 144.839 31.408C145.095 31.152 145.407 31.024 145.775 31.024C146.127 31.024 146.423 31.152 146.663 31.408C146.919 31.648 147.047 31.952 147.047 32.32C147.047 32.688 146.919 33 146.663 33.256C146.423 33.496 146.127 33.616 145.775 33.616ZM151.271 32.632H153.455V41.176C153.455 42.392 152.823 43 151.559 43H140.111C136.415 42.984 134.567 41.536 134.567 38.656V34.624H136.751V38.104C136.751 39.192 137.039 39.984 137.615 40.48C138.191 40.96 139.167 41.2 140.543 41.2H151.271V32.632ZM156.708 43V25.84H158.892V43H156.708ZM164.521 30.424C164.169 30.424 163.865 30.304 163.609 30.064C163.369 29.808 163.249 29.496 163.249 29.128C163.249 28.76 163.369 28.456 163.609 28.216C163.865 27.96 164.169 27.832 164.521 27.832C164.889 27.832 165.193 27.96 165.433 28.216C165.689 28.472 165.817 28.776 165.817 29.128C165.817 29.48 165.689 29.784 165.433 30.04C165.193 30.296 164.889 30.424 164.521 30.424ZM167.761 41.2V43H165.625C165.449 45.928 163.753 47.616 160.537 48.064L160.201 46.072C161.497 45.88 162.361 45.464 162.793 44.824C163.241 44.184 163.465 43.2 163.465 41.872V32.656H165.649V41.2H167.761ZM173.107 41.2H175.579V43H171.331H171.283H171.211H167.755C167.355 43 167.155 42.704 167.155 42.112C167.155 41.504 167.355 41.2 167.755 41.2H170.923V32.632H173.107V41.176V41.2ZM170.275 44.896C170.643 44.896 170.947 45.016 171.187 45.256C171.443 45.512 171.571 45.824 171.571 46.192C171.571 46.56 171.443 46.864 171.187 47.104C170.947 47.36 170.643 47.488 170.275 47.488C169.923 47.488 169.619 47.36 169.363 47.104C169.123 46.864 169.003 46.56 169.003 46.192C169.003 45.824 169.123 45.512 169.363 45.256C169.619 45.016 169.923 44.896 170.275 44.896ZM172.747 45.256C173.003 45.016 173.307 44.896 173.659 44.896C174.011 44.896 174.307 45.016 174.547 45.256C174.803 45.512 174.931 45.824 174.931 46.192C174.931 46.56 174.803 46.864 174.547 47.104C174.307 47.36 174.011 47.488 173.659 47.488C173.307 47.488 173.003 47.36 172.747 47.104C172.491 46.864 172.363 46.56 172.363 46.192C172.363 45.824 172.491 45.512 172.747 45.256ZM188.64 40.096C188.784 40.512 189.048 40.8 189.432 40.96C189.816 41.12 190.352 41.2 191.04 41.2V43C190.192 43 189.512 42.904 189 42.712C188.504 42.52 188.112 42.176 187.824 41.68C187.024 42.576 185.912 43.072 184.488 43.168C183.08 43.264 181.688 42.904 180.312 42.088L181.224 40.576C182.04 41.088 182.864 41.368 183.696 41.416C184.544 41.464 185.232 41.296 185.76 40.912C186.304 40.512 186.576 39.968 186.576 39.28C186.576 37.536 185.168 35.96 182.352 34.552L179.4 41.32C178.92 42.44 178.048 43 176.784 43H175.584C175.184 43 174.984 42.704 174.984 42.112C174.984 41.504 175.184 41.2 175.584 41.2H177.192L179.712 35.392C180.208 34.272 180.944 33.328 181.92 32.56L182.088 32.44C184.424 33.48 186.12 34.576 187.176 35.728C188.232 36.864 188.76 37.992 188.76 39.112C188.76 39.416 188.72 39.744 188.64 40.096ZM197.533 32.44C199.869 33.48 201.565 34.576 202.621 35.728C203.677 36.864 204.205 37.992 204.205 39.112C204.205 40.024 203.933 40.816 203.389 41.488C202.861 42.16 202.189 42.632 201.373 42.904C200.573 43.176 199.661 43.248 198.637 43.12C197.629 42.992 196.669 42.648 195.757 42.088L196.669 40.576C197.485 41.088 198.309 41.368 199.141 41.416C199.989 41.464 200.677 41.296 201.205 40.912C201.749 40.512 202.021 39.968 202.021 39.28C202.021 37.536 200.613 35.96 197.797 34.552L194.845 41.32C194.365 42.44 193.493 43 192.229 43H191.029C190.629 43 190.429 42.704 190.429 42.112C190.429 41.504 190.629 41.2 191.029 41.2H192.637L195.157 35.392C195.653 34.272 196.389 33.328 197.365 32.56L197.533 32.44Z" fill="#1E2F47"/>
</g>
<defs>
<filter id="filter0_d_83_442" x="0.106949" y="0" width="261.156" height="69.1562" filterUnits="userSpaceOnUse" color-interpolation-filters="sRGB">
<feFlood flood-opacity="0" result="BackgroundImageFix"/>
<feColorMatrix in="SourceAlpha" type="matrix" values="0 0 0 0 0 0 0 0 0 0 0 0 0 0 0 0 0 0 127 0" result="hardAlpha"/>
<feOffset dy="4"/>
<feGaussianBlur stdDeviation="2"/>
<feComposite in2="hardAlpha" operator="out"/>
<feColorMatrix type="matrix" values="0 0 0 0 0 0 0 0 0 0 0 0 0 0 0 0 0 0 0.25 0"/>
<feBlend mode="normal" in2="BackgroundImageFix" result="effect1_dropShadow_83_442"/>
<feBlend mode="normal" in="SourceGraphic" in2="effect1_dropShadow_83_442" result="shape"/>
</filter>
</defs>
</svg>
