<svg width="263" height="70" viewBox="0 0 263 70" fill="none" xmlns="http://www.w3.org/2000/svg">
<g filter="url(#filter0_d_17_33)">
<rect x="4.60695" y="0.5" width="34.1562" height="34.1562" fill="#1E2F47" stroke="#FEC200"/>
<rect x="222.607" y="26.5" width="34.1562" height="34.1562" fill="#1E2F47" stroke="#FEC200"/>
<rect x="7.60695" y="3.5" width="246" height="54" fill="#1E2F47" stroke="#FEC200"/>
<path d="M49.5889 15L7.10695 57H216.107L253.107 15H49.5889Z" fill="#FEC200"/>
<path d="M14.0763 14.9997L39.6069 14.9997L14.0763 40.2231L14.0763 14.9997Z" fill="#F6F6F6"/>
<path d="M250.107 53.0001L227.107 53.0001L250.107 27L250.107 53.0001Z" fill="#F6F6F6"/>
<circle cx="229.117" cy="10.1146" r="1.30208" fill="#FEC200"/>
<circle cx="208.284" cy="10.1146" r="1.30208" fill="#FEC200"/>
<circle cx="187.451" cy="10.1146" r="1.30208" fill="#FEC200"/>
<circle cx="166.617" cy="10.1146" r="1.30208" fill="#FEC200"/>
<circle cx="145.784" cy="10.1146" r="1.30208" fill="#FEC200"/>
<circle cx="124.951" cy="10.1146" r="1.30208" fill="#FEC200"/>
<circle cx="104.117" cy="10.1146" r="1.30208" fill="#FEC200"/>
<circle cx="83.284" cy="10.1146" r="1.30208" fill="#FEC200"/>
<circle cx="62.4507" cy="10.1146" r="1.30208" fill="#FEC200"/>
<circle cx="223.909" cy="10.1146" r="1.30208" fill="#FEC200"/>
<circle cx="203.076" cy="10.1146" r="1.30208" fill="#FEC200"/>
<circle cx="182.242" cy="10.1146" r="1.30208" fill="#FEC200"/>
<circle cx="161.409" cy="10.1146" r="1.30208" fill="#FEC200"/>
<circle cx="140.576" cy="10.1146" r="1.30208" fill="#FEC200"/>
<circle cx="119.742" cy="10.1146" r="1.30208" fill="#FEC200"/>
<circle cx="98.909" cy="10.1146" r="1.30208" fill="#FEC200"/>
<circle cx="78.0757" cy="10.1146" r="1.30208" fill="#FEC200"/>
<circle cx="57.2424" cy="10.1146" r="1.30208" fill="#FEC200"/>
<circle cx="218.701" cy="10.1146" r="1.30208" fill="#FEC200"/>
<circle cx="197.867" cy="10.1146" r="1.30208" fill="#FEC200"/>
<circle cx="177.034" cy="10.1146" r="1.30208" fill="#FEC200"/>
<circle cx="156.201" cy="10.1146" r="1.30208" fill="#FEC200"/>
<circle cx="135.367" cy="10.1146" r="1.30208" fill="#FEC200"/>
<circle cx="114.534" cy="10.1146" r="1.30208" fill="#FEC200"/>
<circle cx="93.7007" cy="10.1146" r="1.30208" fill="#FEC200"/>
<circle cx="72.8674" cy="10.1146" r="1.30208" fill="#FEC200"/>
<circle cx="52.034" cy="10.1146" r="1.30208" fill="#FEC200"/>
<circle cx="41.6174" cy="10.1146" r="1.30208" fill="#FEC200"/>
<circle cx="213.492" cy="10.1146" r="1.30208" fill="#FEC200"/>
<circle cx="192.659" cy="10.1146" r="1.30208" fill="#FEC200"/>
<circle cx="171.826" cy="10.1146" r="1.30208" fill="#FEC200"/>
<circle cx="150.992" cy="10.1146" r="1.30208" fill="#FEC200"/>
<circle cx="130.159" cy="10.1146" r="1.30208" fill="#FEC200"/>
<circle cx="109.326" cy="10.1146" r="1.30208" fill="#FEC200"/>
<circle cx="88.4924" cy="10.1146" r="1.30208" fill="#FEC200"/>
<circle cx="67.659" cy="10.1146" r="1.30208" fill="#FEC200"/>
<circle cx="46.8257" cy="10.1146" r="1.30208" fill="#FEC200"/>
<circle cx="36.409" cy="10.1146" r="1.30208" fill="#FEC200"/>
<path d="M96.0412 33.256C95.7852 33.496 95.4812 33.616 95.1292 33.616C94.7772 33.616 94.4732 33.496 94.2172 33.256C93.9772 33 93.8572 32.688 93.8572 32.32C93.8572 31.952 93.9772 31.648 94.2172 31.408C94.4732 31.152 94.7772 31.024 95.1292 31.024C95.4812 31.024 95.7852 31.152 96.0412 31.408C96.2972 31.648 96.4252 31.952 96.4252 32.32C96.4252 32.688 96.2972 33 96.0412 33.256ZM98.5132 33.616C98.1452 33.616 97.8332 33.496 97.5772 33.256C97.3372 33 97.2172 32.688 97.2172 32.32C97.2172 31.952 97.3372 31.648 97.5772 31.408C97.8332 31.152 98.1452 31.024 98.5132 31.024C98.8652 31.024 99.1612 31.152 99.4012 31.408C99.6572 31.648 99.7852 31.952 99.7852 32.32C99.7852 32.688 99.6572 33 99.4012 33.256C99.1612 33.496 98.8652 33.616 98.5132 33.616ZM104.009 32.632H106.193V41.176C106.193 42.392 105.561 43 104.297 43H92.8492C89.1532 42.984 87.3052 41.536 87.3052 38.656V34.624H89.4892V38.104C89.4892 39.192 89.7772 39.984 90.3532 40.48C90.9292 40.96 91.9052 41.2 93.2812 41.2H104.009V32.632ZM109.446 43V25.84H111.63V41.2H114.078V43H109.446ZM119.712 30.16C119.36 30.16 119.056 30.04 118.8 29.8C118.56 29.544 118.44 29.232 118.44 28.864C118.44 28.496 118.56 28.192 118.8 27.952C119.056 27.696 119.36 27.568 119.712 27.568C120.08 27.568 120.384 27.696 120.624 27.952C120.88 28.192 121.008 28.496 121.008 28.864C121.008 29.232 120.88 29.544 120.624 29.8C120.384 30.04 120.08 30.16 119.712 30.16ZM123.984 29.8C123.744 30.04 123.448 30.16 123.096 30.16C122.744 30.16 122.44 30.04 122.184 29.8C121.928 29.544 121.8 29.232 121.8 28.864C121.8 28.496 121.928 28.192 122.184 27.952C122.44 27.696 122.744 27.568 123.096 27.568C123.448 27.568 123.744 27.696 123.984 27.952C124.24 28.192 124.368 28.496 124.368 28.864C124.368 29.232 124.24 29.544 123.984 29.8ZM121.416 32.392C122.792 32.392 123.968 32.832 124.944 33.712C125.92 34.576 126.408 35.896 126.408 37.672V41.176C126.408 42.392 125.776 43 124.512 43H114.072C113.672 43 113.472 42.704 113.472 42.112C113.472 41.504 113.672 41.2 114.072 41.2H117.216C116.336 40.224 115.896 39.08 115.896 37.768C115.896 36.312 116.392 35.056 117.384 34C118.392 32.928 119.736 32.392 121.416 32.392ZM124.224 41.2V37.912C124.224 36.808 123.976 35.912 123.48 35.224C122.984 34.536 122.248 34.192 121.272 34.192C120.28 34.192 119.496 34.528 118.92 35.2C118.36 35.872 118.08 36.664 118.08 37.576C118.08 38.504 118.384 39.344 118.992 40.096C119.616 40.832 120.544 41.2 121.776 41.2H124.224ZM129.18 43V25.84H131.364V41.2H133.812V43H129.18ZM149.862 41.2H151.95V43H133.806C133.406 43 133.206 42.704 133.206 42.112C133.206 41.504 133.406 41.2 133.806 41.2H136.158V26.2H138.342V32.632H144.822C145.766 32.632 146.574 32.784 147.246 33.088C147.934 33.392 148.462 33.808 148.83 34.336C149.198 34.848 149.462 35.392 149.622 35.968C149.782 36.528 149.862 37.128 149.862 37.768V41.2ZM147.678 41.2V37.792C147.678 35.552 146.422 34.432 143.91 34.432H138.342V41.2H147.678ZM157.155 41.2H159.579V43H155.379H155.331H155.259H151.947C151.547 43 151.347 42.704 151.347 42.112C151.347 41.504 151.547 41.2 151.947 41.2H154.971V32.632H157.155V41.176V41.2ZM154.875 45.256C155.131 45.016 155.435 44.896 155.787 44.896C156.139 44.896 156.443 45.016 156.699 45.256C156.955 45.512 157.083 45.824 157.083 46.192C157.083 46.56 156.955 46.864 156.699 47.104C156.443 47.36 156.139 47.488 155.787 47.488C155.435 47.488 155.131 47.36 154.875 47.104C154.635 46.864 154.515 46.56 154.515 46.192C154.515 45.824 154.635 45.512 154.875 45.256ZM162.611 25.84H164.795V41.176C164.795 42.392 164.163 43 162.899 43H159.587C159.187 43 158.987 42.704 158.987 42.112C158.987 41.504 159.187 41.2 159.587 41.2H162.611V25.84ZM168.063 43V25.84H170.247V43H168.063Z" fill="#1E2F47"/>
</g>
<defs>
<filter id="filter0_d_17_33" x="0.106949" y="0" width="261.156" height="69.1562" filterUnits="userSpaceOnUse" color-interpolation-filters="sRGB">
<feFlood flood-opacity="0" result="BackgroundImageFix"/>
<feColorMatrix in="SourceAlpha" type="matrix" values="0 0 0 0 0 0 0 0 0 0 0 0 0 0 0 0 0 0 127 0" result="hardAlpha"/>
<feOffset dy="4"/>
<feGaussianBlur stdDeviation="2"/>
<feComposite in2="hardAlpha" operator="out"/>
<feColorMatrix type="matrix" values="0 0 0 0 0 0 0 0 0 0 0 0 0 0 0 0 0 0 0.25 0"/>
<feBlend mode="normal" in2="BackgroundImageFix" result="effect1_dropShadow_17_33"/>
<feBlend mode="normal" in="SourceGraphic" in2="effect1_dropShadow_17_33" result="shape"/>
</filter>
</defs>
</svg>
