<svg width="177" height="50" viewBox="0 0 177 50" fill="none" xmlns="http://www.w3.org/2000/svg">
<g filter="url(#filter0_d_110_121)">
<rect x="5.15247" y="0.775391" width="22.334" height="22.465" fill="#1E2F47" stroke="#FEC200"/>
<rect x="149.844" y="18.1291" width="22.334" height="22.465" fill="#1E2F47" stroke="#FEC200"/>
<rect x="7.14392" y="2.77777" width="162.94" height="35.7097" fill="#1E2F47" stroke="#FEC200"/>
<path d="M34.8402 10.2871L6.64392 38.32H145.362L169.92 10.2871H34.8402Z" fill="#FEC200"/>
<path d="M11.2695 10.2871L28.2148 10.2871L11.2695 27.1225L11.2695 10.2871Z" fill="#D1D2D6"/>
<path d="M167.929 35.6502L152.663 35.6502L167.929 18.2965L167.929 35.6502Z" fill="#D1D2D6"/>
<ellipse cx="153.997" cy="7.02642" rx="0.864223" ry="0.869075" fill="#FEC200"/>
<ellipse cx="140.17" cy="7.02642" rx="0.864223" ry="0.869075" fill="#FEC200"/>
<ellipse cx="126.342" cy="7.02642" rx="0.864223" ry="0.869075" fill="#FEC200"/>
<ellipse cx="112.515" cy="7.02642" rx="0.864223" ry="0.869075" fill="#FEC200"/>
<ellipse cx="98.6871" cy="7.02642" rx="0.864223" ry="0.869075" fill="#FEC200"/>
<ellipse cx="84.8595" cy="7.02642" rx="0.864223" ry="0.869075" fill="#FEC200"/>
<ellipse cx="71.0319" cy="7.02642" rx="0.864223" ry="0.869075" fill="#FEC200"/>
<ellipse cx="57.2042" cy="7.02642" rx="0.864223" ry="0.869075" fill="#FEC200"/>
<ellipse cx="43.3767" cy="7.02642" rx="0.864223" ry="0.869075" fill="#FEC200"/>
<ellipse cx="150.54" cy="7.02642" rx="0.864223" ry="0.869075" fill="#FEC200"/>
<ellipse cx="136.713" cy="7.02642" rx="0.864223" ry="0.869075" fill="#FEC200"/>
<ellipse cx="122.885" cy="7.02642" rx="0.864223" ry="0.869075" fill="#FEC200"/>
<ellipse cx="109.058" cy="7.02642" rx="0.864223" ry="0.869075" fill="#FEC200"/>
<ellipse cx="95.2302" cy="7.02642" rx="0.864223" ry="0.869075" fill="#FEC200"/>
<ellipse cx="81.4025" cy="7.02642" rx="0.864223" ry="0.869075" fill="#FEC200"/>
<ellipse cx="67.575" cy="7.02642" rx="0.864223" ry="0.869075" fill="#FEC200"/>
<ellipse cx="53.7474" cy="7.02642" rx="0.864223" ry="0.869075" fill="#FEC200"/>
<ellipse cx="39.9199" cy="7.02642" rx="0.864223" ry="0.869075" fill="#FEC200"/>
<ellipse cx="147.084" cy="7.02642" rx="0.864223" ry="0.869075" fill="#FEC200"/>
<ellipse cx="133.256" cy="7.02642" rx="0.864223" ry="0.869075" fill="#FEC200"/>
<ellipse cx="119.429" cy="7.02642" rx="0.864223" ry="0.869075" fill="#FEC200"/>
<ellipse cx="105.601" cy="7.02642" rx="0.864223" ry="0.869075" fill="#FEC200"/>
<ellipse cx="91.7733" cy="7.02642" rx="0.864223" ry="0.869075" fill="#FEC200"/>
<ellipse cx="77.9456" cy="7.02642" rx="0.864223" ry="0.869075" fill="#FEC200"/>
<ellipse cx="64.1181" cy="7.02642" rx="0.864223" ry="0.869075" fill="#FEC200"/>
<ellipse cx="50.2907" cy="7.02642" rx="0.864223" ry="0.869075" fill="#FEC200"/>
<ellipse cx="36.4629" cy="7.02642" rx="0.864223" ry="0.869075" fill="#FEC200"/>
<ellipse cx="29.5492" cy="7.02642" rx="0.864223" ry="0.869075" fill="#FEC200"/>
<ellipse cx="143.627" cy="7.02642" rx="0.864223" ry="0.869075" fill="#FEC200"/>
<ellipse cx="129.799" cy="7.02642" rx="0.864223" ry="0.869075" fill="#FEC200"/>
<ellipse cx="115.972" cy="7.02642" rx="0.864223" ry="0.869075" fill="#FEC200"/>
<ellipse cx="102.144" cy="7.02642" rx="0.864223" ry="0.869075" fill="#FEC200"/>
<ellipse cx="88.3162" cy="7.02642" rx="0.864223" ry="0.869075" fill="#FEC200"/>
<ellipse cx="74.4887" cy="7.02642" rx="0.864223" ry="0.869075" fill="#FEC200"/>
<ellipse cx="60.6612" cy="7.02642" rx="0.864223" ry="0.869075" fill="#FEC200"/>
<ellipse cx="46.8337" cy="7.02642" rx="0.864223" ry="0.869075" fill="#FEC200"/>
<ellipse cx="33.0062" cy="7.02642" rx="0.864223" ry="0.869075" fill="#FEC200"/>
<ellipse cx="26.0923" cy="7.02642" rx="0.864223" ry="0.869075" fill="#FEC200"/>
<path d="M66.6302 27.1782C66.6396 27.6075 66.6022 27.9902 66.5182 28.3262C66.4436 28.6715 66.3036 29.0075 66.0982 29.3342C65.8929 29.6702 65.5802 29.9455 65.1602 30.1602C64.7496 30.3842 64.2456 30.5382 63.6482 30.6222L63.4522 29.4602C64.2082 29.3482 64.7122 29.1055 64.9642 28.7322C65.2256 28.3589 65.3562 27.7849 65.3562 27.0102V21.6342H66.6302V27.1782ZM68.5511 27.6682V17.6582H69.8251V26.6182H71.2531V27.6682H68.5511ZM74.2875 26.6182H75.7015V27.6682H73.2515H73.2235H73.1815H71.2495C71.0161 27.6682 70.8995 27.4955 70.8995 27.1502C70.8995 26.7955 71.0161 26.6182 71.2495 26.6182H73.0135V21.6202H74.2875V26.6042V26.6182ZM72.9575 28.9842C73.1068 28.8442 73.2841 28.7742 73.4895 28.7742C73.6948 28.7742 73.8721 28.8442 74.0215 28.9842C74.1708 29.1335 74.2455 29.3155 74.2455 29.5302C74.2455 29.7449 74.1708 29.9222 74.0215 30.0622C73.8721 30.2115 73.6948 30.2862 73.4895 30.2862C73.2841 30.2862 73.1068 30.2115 72.9575 30.0622C72.8175 29.9222 72.7475 29.7449 72.7475 29.5302C72.7475 29.3155 72.8175 29.1335 72.9575 28.9842ZM79.0105 20.1082C78.8612 20.2482 78.6838 20.3182 78.4785 20.3182C78.2732 20.3182 78.0958 20.2482 77.9465 20.1082C77.8065 19.9589 77.7365 19.7769 77.7365 19.5622C77.7365 19.3475 77.8065 19.1702 77.9465 19.0302C78.0958 18.8809 78.2732 18.8062 78.4785 18.8062C78.6838 18.8062 78.8612 18.8809 79.0105 19.0302C79.1598 19.1702 79.2345 19.3475 79.2345 19.5622C79.2345 19.7769 79.1598 19.9589 79.0105 20.1082ZM79.1785 21.6202C79.7198 21.6202 80.1865 21.7089 80.5785 21.8862C80.9705 22.0635 81.2692 22.3015 81.4745 22.6002C81.6892 22.8989 81.8432 23.2115 81.9365 23.5382C82.0392 23.8555 82.0905 24.1962 82.0905 24.5602V26.6042C82.0905 27.3135 81.7218 27.6682 80.9845 27.6682H75.7065C75.4732 27.6682 75.3565 27.4955 75.3565 27.1502C75.3565 26.7955 75.4732 26.6182 75.7065 26.6182H80.8165V24.6022C80.8165 23.3142 80.0792 22.6702 78.6045 22.6702H76.4485V21.6202H79.1785ZM83.1812 27.6682V26.6182H88.6972V17.6582H89.9712V27.6682H83.1812ZM86.5832 25.6942H85.3092V20.8502H86.5832V25.6942ZM91.8753 27.6682V17.6582H93.1493V27.6682H91.8753ZM102.384 26.6182V27.6682H101.138C101.035 29.3762 100.046 30.3609 98.1697 30.6222L97.9737 29.4602C98.7297 29.3482 99.2337 29.1055 99.4857 28.7322C99.7471 28.3589 99.8777 27.7849 99.8777 27.0102V21.6342H101.152V26.6182H102.384ZM105.684 20.1082C105.535 20.2482 105.358 20.3182 105.152 20.3182C104.947 20.3182 104.77 20.2482 104.62 20.1082C104.48 19.9589 104.41 19.7769 104.41 19.5622C104.41 19.3475 104.48 19.1702 104.62 19.0302C104.77 18.8809 104.947 18.8062 105.152 18.8062C105.358 18.8062 105.535 18.8809 105.684 19.0302C105.834 19.1702 105.908 19.3475 105.908 19.5622C105.908 19.7769 105.834 19.9589 105.684 20.1082ZM105.852 21.6202C106.394 21.6202 106.86 21.7089 107.252 21.8862C107.644 22.0635 107.943 22.3015 108.148 22.6002C108.363 22.8989 108.517 23.2115 108.61 23.5382C108.713 23.8555 108.764 24.1962 108.764 24.5602V26.6042C108.764 27.3135 108.396 27.6682 107.658 27.6682H102.38C102.147 27.6682 102.03 27.4955 102.03 27.1502C102.03 26.7955 102.147 26.6182 102.38 26.6182H107.49V24.6022C107.49 23.3142 106.753 22.6702 105.278 22.6702H103.122V21.6202H105.852ZM110.387 27.6682V17.6582H111.661V27.6682H110.387Z" fill="#1E2F47"/>
</g>
<defs>
<filter id="filter0_d_110_121" x="0.652466" y="0.275391" width="176.026" height="48.8187" filterUnits="userSpaceOnUse" color-interpolation-filters="sRGB">
<feFlood flood-opacity="0" result="BackgroundImageFix"/>
<feColorMatrix in="SourceAlpha" type="matrix" values="0 0 0 0 0 0 0 0 0 0 0 0 0 0 0 0 0 0 127 0" result="hardAlpha"/>
<feOffset dy="4"/>
<feGaussianBlur stdDeviation="2"/>
<feComposite in2="hardAlpha" operator="out"/>
<feColorMatrix type="matrix" values="0 0 0 0 0 0 0 0 0 0 0 0 0 0 0 0 0 0 0.25 0"/>
<feBlend mode="normal" in2="BackgroundImageFix" result="effect1_dropShadow_110_121"/>
<feBlend mode="normal" in="SourceGraphic" in2="effect1_dropShadow_110_121" result="shape"/>
</filter>
</defs>
</svg>
